<?xml version="1.0" encoding="UTF-8" standalone="no"?>
<!-- Created with Inkscape (http://www.inkscape.org/) -->

<svg
   width="53"
   height="40"
   viewBox="0 0 68.38652 35.867584"
   version="1.1"
   id="svg1"
   xmlns="http://www.w3.org/2000/svg"
   xmlns:svg="http://www.w3.org/2000/svg">
  <defs
     id="defs1" />
  <path
     d="m 47.550002,4.76e-4 -7.515057,1.015616 -2.479818,11.683366 v -0.19909 c 0,-0.77721 -0.348807,-1.39684 -1.043338,-1.85986 -0.677995,-0.47956 -1.702045,-0.718241 -3.074571,-0.718241 -2.761589,0 -5.20182,1.015391 -7.318487,3.049371 -1.835546,1.78594 -3.281347,4.1359 -4.339681,7.04631 -0.46302,1.28985 -0.811827,2.5959 -1.043338,3.91882 -0.200199,1.06773 -0.314201,2.09049 -0.352819,3.07205 -0.814261,0.64601 -1.807663,1.31731 -2.993927,2.01359 0.132292,-0.42995 0.196571,-1.07557 0.196571,-1.93547 0,-0.95911 -0.04947,-2.08462 -0.148688,-3.37446 -0.115755,-1.10794 -0.255499,-2.84442 -0.420863,-5.20913 -0.165365,-2.29857 -0.348434,-5.59711 -0.546871,-9.896594 L 8.954058,9.599689 c -0.892969,2.860809 -1.826745,5.498919 -2.802396,7.913239 -0.975651,2.41432 -2.124635,4.7939 -3.447552,7.14208 -0.74414,0.34726 -1.363769,0.91743 -1.859863,1.71117 C 0.282008,27.259158 0,28.259728 0,29.367668 c 0,0.81029 0.148409,1.59565 0.446065,2.35633 0.297656,0.74414 0.745402,1.42443 1.340714,2.03627 0.644922,0.66146 1.438955,1.18215 2.381533,1.56249 0.942578,0.3638 2.024762,0.54435 3.24846,0.54435 1.471745,0 2.868076,-0.23002 4.190993,-0.69304 1.521355,-0.51263 2.786608,-1.298 3.795331,-2.35633 1.405599,-0.81029 2.746316,-1.72059 4.019623,-2.72931 0.344885,-0.26972 0.686724,-0.55624 1.025697,-0.85433 0.214736,2.0592 0.8774,3.6732 2.000991,4.82355 1.190625,1.20716 2.752695,1.80946 4.687461,1.80946 1.670182,0 3.191448,-0.4947 4.563974,-1.48688 1.058333,-0.74414 2.041578,-1.80285 2.951083,-3.17538 0.198438,1.42213 0.727793,2.50432 1.587689,3.24846 0.859895,0.74414 1.991549,1.11642 3.397148,1.11642 1.157552,0 2.224927,-0.1744 3.200578,-0.52167 1.35599,-0.47955 2.589103,-1.3292 3.697046,-2.5529 0.351297,-0.39576 0.684133,-0.83446 1.005536,-1.30795 0.261132,1.21256 0.797848,2.21402 1.62297,2.99393 1.207161,1.12448 2.967109,1.68597 5.282213,1.68597 3.323828,0 6.127676,-1.04138 8.409708,-3.12497 1.885154,-1.73633 3.324814,-4.05163 4.317004,-6.94551 0.41341,-1.20717 0.71889,-2.42295 0.91733,-3.64664 0.19843,-1.24024 0.29737,-2.38922 0.29737,-3.44755 0,-3.07578 -0.55283,-5.33295 -1.66077,-6.77162 -0.99219,-1.27331 -2.440507,-1.91027 -4.342201,-1.91027 -0.628385,0 -1.18988,0.0755 -1.685973,0.2243 -0.677995,0.19843 -1.504167,0.59419 -2.479818,1.1895 L 60.64717,4.76e-4 53.132112,1.016092 47.69869,26.466988 c -0.429948,1.4056 -0.959302,2.47912 -1.587688,3.22326 -0.74414,0.84336 -1.587642,1.26511 -2.53022,1.26511 -0.727604,0 -1.256959,-0.13975 -1.587689,-0.42087 -0.330729,-0.28112 -0.493947,-0.76966 -0.493947,-1.4642 0,-0.5953 0.07294,-1.13947 0.221772,-1.63557 z M 34.999705,13.072438 c 0.711068,0 1.240423,0.21521 1.587688,0.64516 0.214974,0.28112 0.380712,0.6534 0.496468,1.11642 l -2.482338,11.63297 v 0.27217 c -0.297656,1.30638 -0.891291,2.36509 -1.784259,3.17538 -0.380339,0.33073 -0.78728,0.58674 -1.217228,0.76864 -0.413411,0.1819 -0.800503,0.27218 -1.164305,0.27218 -0.330729,0 -0.627546,-0.0322 -0.892129,-0.0983 -0.264584,-0.0661 -0.505786,-0.21456 -0.72076,-0.44606 -0.628386,-0.59532 -0.942533,-1.73563 -0.942533,-3.42235 0,-0.81029 0.07546,-1.71193 0.224293,-2.70411 0.148828,-1.00873 0.370181,-2.02663 0.667837,-3.05189 0.644922,-2.3151 1.464949,-4.19132 2.457136,-5.63 0.56224,-0.79375 1.155874,-1.41338 1.784259,-1.85986 0.644922,-0.44649 1.307876,-0.67036 1.985871,-0.67036 z m 25.549179,0.54435 c 0.446484,0 0.842241,0.1336 1.189507,0.39819 0.347265,0.26458 0.637937,0.63686 0.869448,1.11642 0.429948,0.87643 0.645156,1.99942 0.645156,3.37195 0,1.7694 -0.264678,3.63081 -0.793844,5.58211 -0.56224,1.98437 -1.274663,3.58724 -2.134559,4.81094 -0.992187,1.37253 -2.001428,2.05896 -3.026688,2.05896 -1.785938,0 -2.678909,-0.78537 -2.678909,-2.35633 0,-0.36381 0.04947,-0.75089 0.148688,-1.16431 l 2.779715,-12.89807 c 0.264583,-0.3142 0.744468,-0.56407 1.439,-0.74597 0.463021,-0.11576 0.98371,-0.17389 1.562486,-0.17389 z m -51.29745,1.48941 0.274695,3.42235 c 0.148828,1.71979 0.297237,3.23239 0.446065,4.53877 l 0.123487,1.5146 c 0.08268,1.02526 0.123487,1.87743 0.123487,2.55543 0,1.62057 -0.453891,2.8425 -1.363396,3.66932 -0.760677,0.69453 -1.778583,1.04334 -3.051889,1.04334 -1.107944,0 -1.901976,-0.28201 -2.381533,-0.84425 -0.479557,-0.57877 -0.71824,-1.48041 -0.71824,-2.70411 0.132292,0.26458 0.306695,0.44765 0.521669,0.54687 0.231511,0.0827 0.510998,0.12349 0.841727,0.12349 0.661459,0 1.208143,-0.26468 1.638091,-0.79385 0.396875,-0.47956 0.594753,-1.04971 0.594753,-1.71117 0,-0.74414 -0.389611,-1.33163 -1.166825,-1.76158 0.942578,-1.83555 1.745275,-3.50522 2.406734,-5.01004 0.661458,-1.52135 1.231618,-3.05129 1.711175,-4.58917 z"
     style="-inkscape-font-specification:Pattaya;fill:#31cce4;stroke-width:0.264583"
     id="path1" />
</svg>
