<?xml version="1.0" encoding="UTF-8" standalone="no"?>
<!-- <svg version="1.1" xmlns="http://www.w3.org/2000/svg" xmlns:xlink="http://www.w3.org/1999/xlink" preserveAspectRatio="xMidYMid meet" viewBox="344.5639097744361 330.27819548872174 111.73684210526318 91.21804511278197" width="53.87" height="43.61"><defs><path d="M453.3 331.28L453.3 359.85L388.64 418.5L388.64 388.42L453.3 331.28Z" id="aFZf6T5ED"></path><linearGradient id="gradientb2ThqnP5Op" gradientUnits="userSpaceOnUse" x1="420.97" y1="331.28" x2="420.97" y2="418.5"><stop style="stop-color: #06b6d4;stop-opacity: 1" offset="0%"></stop><stop style="stop-color: #67e8f9;stop-opacity: 1" offset="100%"></stop></linearGradient><path d="M410.23 331.28L410.23 359.85L345.56 418.5L345.56 388.42L410.23 331.28Z" id="a9fehgwfM"></path><linearGradient id="gradientk1wNV9Ostb" gradientUnits="userSpaceOnUse" x1="377.89" y1="331.28" x2="377.89" y2="418.5"><stop style="stop-color: #06b6d4;stop-opacity: 1" offset="0%"></stop><stop style="stop-color: #67e8f9;stop-opacity: 1" offset="100%"></stop></linearGradient></defs><g><g><use xlink:href="#aFZf6T5ED" opacity="1" fill="url(#gradientb2ThqnP5Op)"></use></g><g><use xlink:href="#a9fehgwfM" opacity="1" fill="url(#gradientk1wNV9Ostb)"></use></g></g></svg> -->

<svg
   width="24.905197"
   height="24.947105"
   viewBox="0 0 33.663297 33.776695"
   version="1.1"
   id="svg1"
   xmlns="http://www.w3.org/2000/svg"
   xmlns:svg="http://www.w3.org/2000/svg">
  <defs
     id="defs1" />
  <path
     style="font-weight:bold;font-size:51.4105px;font-family:'Space Grotesk';-inkscape-font-specification:'Space Grotesk Bold';letter-spacing:-3.60408px;display:inline;fill:#35795b;stroke-width:0.267762"
     d="m 11.995933,26.939102 q -4.9868187,0 -8.1742695,-2.159241 -3.18745098,-2.159241 -3.85578748,-6.16926 L 5.9294943,17.068286 q 0.359873,1.799367 1.182441,2.827577 0.873979,1.02821 2.107831,1.490905 1.2852617,0.411284 2.7761667,0.411284 2.262062,0 3.341682,-0.771158 1.079621,-0.822568 1.079621,-2.005009 0,-1.182442 -1.02821,-1.799368 -1.02821,-0.668336 -3.290272,-1.07962 L 10.65926,15.885844 Q 7.9859143,15.371739 5.7752623,14.497761 3.564611,13.572372 2.227938,11.978646 0.89126502,10.384921 0.89126502,7.865806 q 0,-3.804377 2.77616698,-5.8093861 Q 6.4435993,-1.0337002e-7 10.967723,-1.0337002e-7 q 4.267071,0 7.094649,1.90218850337002 2.827577,1.9021886 3.701556,4.9868186 L 15.748899,8.739785 Q 15.337615,6.786186 14.052353,5.963618 12.818501,5.14105 10.967723,5.14105 q -1.8507777,0 -2.8275777,0.668336 -0.976799,0.616926 -0.976799,1.747957 0,1.233852 1.02821,1.850778 1.02821,0.565516 2.7761667,0.873979 l 1.439494,0.257052 q 2.878988,0.514105 5.19246,1.388084 2.364883,0.822568 3.701556,2.416293 1.388084,1.542315 1.388084,4.215661 0,4.010019 -2.930399,6.220671 -2.878988,2.159241 -7.762985,2.159241 z M 28.801829,9.767995 q -2.05642,0 -3.495913,-1.336673 -1.388084,-1.388084 -1.388084,-3.547325 0,-2.1592406 1.388084,-3.4959136 Q 26.745409,-1.0337002e-7 28.801829,-1.0337002e-7 q 2.107831,0 3.495914,1.38808350337002 1.388084,1.336673 1.388084,3.4959136 0,2.159241 -1.388084,3.547325 -1.388083,1.336673 -3.495914,1.336673 z m -3.495913,24.008703 v -3.495914 h 2.005009 q 2.364883,0 2.364883,-2.364883 v -1.645136 h -0.873979 q -2.05642,0 -3.444503,-1.233852 -1.336673,-1.233852 -1.336673,-3.13604 0,-2.05642 1.336673,-3.341683 1.388083,-1.285262 3.444503,-1.285262 2.107831,0 3.444504,1.336673 1.336673,1.285262 1.336673,3.495914 v 5.912207 q 0,5.757976 -5.757976,5.757976 z"
     id="text1"
     aria-label="s;" />
</svg>
